# xmcd
#
# Track frame offsets:
#	182
#	13897
#	28497
#	41297
#	54822
#	65565
#	85360
#	95547
#	106775
#	119025
#	129930
#	144872
#	157022
#	175060
#	190335
#	205872
#	218217
#	232417
#
# Disc length: 3235 seconds
#
# Revision: 1
# Processed by: cddbd v1.5.1PL2 Copyright (c) Steve Scherf et al.
# Submitted via: EasyCDDAExtractor 6.0.0.1
#
DISCID=030ca112
DTITLE=Kenny Rogers - Country Music CM002
DYEAR=1999
DGENRE=Country
TTITLE0=Roby Don't Your Love To Town # 39 ('69)
TTITLE1=Sunshine
TTITLE2=Ruben James
TTITLE3=Shine On Ruby Mountains
TTITLE4=Ticket To Nowhere
TTITLE5=Lay It Down
TTITLE6=New Design
TTITLE7=Always Leaving, Always Gone
TTITLE8=What Am I Gonna Do?
TTITLE9=She Even Wake Me Up To Say Goodbye
TTITLE10=Hear The Call
TTITLE11=Me And Bobby McGee
TTITLE12=Something Burning
TTITLE13=Just Dropped In
TTITLE14=For The Good Times
TTITLE15=Elvira
TTITLE16=Loser
TTITLE17=Good Time Liberator
EXTD=
EXTT0=
EXTT1=
EXTT2=
EXTT3=
EXTT4=
EXTT5=
EXTT6=
EXTT7=
EXTT8=
EXTT9=
EXTT10=
EXTT11=
EXTT12=
EXTT13=
EXTT14=
EXTT15=
EXTT16=
EXTT17=
PLAYORDER=
